<svg xmlns="http://www.w3.org/2000/svg" viewBox="0 0 128 128" width="128" height="128">
  <rect width="128" height="128" rx="24" fill="#0a0e14"/>
  <g transform="translate(8,8) scale(2)">
    <path d="M10 6 L10 50 C10 50 20 47 28 50 C36 47 46 50 46 50 L46 6 C46 6 36 3 28 6 C20 3 10 6 10 6Z"
      stroke="#a78bfa" stroke-width="1.2" fill="rgba(167,139,250,0.08)"/>
    <line x1="28" y1="6" x2="28" y2="50" stroke="#a78bfa" stroke-width="0.7" opacity="0.35"/>
    <circle cx="19" cy="25" r="7" stroke="#a78bfa" stroke-width="0.8" opacity="0.7"/>
    <polygon points="19,17.5 21.5,24 15,20 23,20 16.5,24" stroke="#a78bfa" stroke-width="0.6" fill="rgba(167,139,250,0.15)" opacity="0.75"/>
    <circle cx="19" cy="25" r="9.5" fill="#a78bfa" opacity="0.1"/>
    <path d="M34 15 L37 22 L34 29" stroke="#a78bfa" stroke-width="0.9" stroke-linecap="round" opacity="0.6"/>
    <line x1="33" y1="18" x2="38" y2="18" stroke="#a78bfa" stroke-width="0.8" opacity="0.5"/>
    <path d="M33 33 L38 38 L33 38" stroke="#a78bfa" stroke-width="0.9" stroke-linecap="round" opacity="0.55"/>
    <circle cx="36" cy="43" r="2" stroke="#a78bfa" stroke-width="0.7" opacity="0.4"/>
    <path d="M36 41 L36 45 M34 43 L38 43" stroke="#a78bfa" stroke-width="0.5" opacity="0.35"/>
  </g>
</svg>
